# xmcd CD database file
#
# Track frame offsets:
#	150
#	15509
#	32535
#	42710
#	58467
#	70055
#	99327
#	109730
#	120951
#	121834
#	140811
#	160976
#	175530
#
# Disc length: 2558 seconds
#
# Revision: 0
# Processed by: cddbd v1.4PL0 Copyright (c) Steve Scherf et al.
# Submitted via: Feurio! 1.66 - http://www.feurio.com
#
DISCID=ab09fc0d
DTITLE=Mannix and Walter - Fränkische Lieder
DYEAR=1900
DGENRE=
TTITLE0=Erster Tanz (instr.)
TTITLE1=Häut
TTITLE2=Die Schoppehauer
TTITLE3=Die Küh
TTITLE4=Ein Winzer
TTITLE5=Fridolin
TTITLE6=Alaska
TTITLE7=Irma
TTITLE8=Gäul stahl
TTITLE9=Oehrberg
TTITLE10=Bangkok
TTITLE11=Die Sool entlang (instr.)
TTITLE12=´n Strauß mit Blume
EXTD=
EXTT0=
EXTT1=
EXTT2=
EXTT3=
EXTT4=
EXTT5=
EXTT6=
EXTT7=
EXTT8=
EXTT9=
EXTT10=
EXTT11=
EXTT12=
PLAYORDER=
